<svg width="35" height="35" viewBox="0 0 35 35" fill="none" xmlns="http://www.w3.org/2000/svg">
<path fill-rule="evenodd" clip-rule="evenodd" d="M13.6855 5C16.8084 5 19.3882 7.36345 19.7063 10.3862L19.795 10.3873C21.5274 10.3873 23.6337 11.53 24.3446 14.7352L25.2872 21.9822C25.6253 24.3212 25.2024 26.1973 24.028 27.543C22.8595 28.8816 21.0101 29.59 18.6791 29.59H8.70549C6.14517 29.59 4.36143 28.967 3.25152 27.6866C2.13683 26.4026 1.76408 24.4766 2.144 21.9633L3.07112 14.8124C3.68043 11.5336 5.90862 10.3873 7.63381 10.3873C7.78275 9.02315 8.40203 7.72543 9.38446 6.75272C10.5135 5.63843 12.0702 5 13.6604 5H13.6855ZM19.795 12.1673H7.63381C7.10694 12.1673 5.3459 12.3785 4.84052 15.0889L3.91819 22.2089C3.61831 24.2061 3.85009 25.6514 4.60874 26.526C5.35784 27.3899 6.69834 27.81 8.70549 27.81H18.6791C19.9312 27.81 21.6409 27.562 22.6731 26.3777C23.4927 25.439 23.7747 24.0411 23.5119 22.2219L22.5812 15.0402C22.1845 13.2709 21.1379 12.1673 19.795 12.1673ZM17.17 15.4711C17.6646 15.4711 18.0935 15.8698 18.0935 16.3611C18.0935 16.8524 17.7195 17.2511 17.2249 17.2511H17.17C16.6753 17.2511 16.2739 16.8524 16.2739 16.3611C16.2739 15.8698 16.6753 15.4711 17.17 15.4711ZM10.2045 15.4711C10.6991 15.4711 11.1281 15.8698 11.1281 16.3611C11.1281 16.8524 10.7529 17.2511 10.2583 17.2511H10.2045C9.70991 17.2511 9.30848 16.8524 9.30848 16.3611C9.30848 15.8698 9.70991 15.4711 10.2045 15.4711ZM13.6819 6.78001H13.664C12.5398 6.78001 11.4442 7.22976 10.6497 8.01415C10.0025 8.65408 9.57923 9.49535 9.4423 10.3867L17.9002 10.387C17.5932 8.34805 15.818 6.78001 13.6819 6.78001Z" fill="#716C6C"/>
</svg>
