<svg width="25" height="24" viewBox="0 0 25 24" fill="none" xmlns="http://www.w3.org/2000/svg">
<path fill-rule="evenodd" clip-rule="evenodd" d="M5.24753 13.5385C10.2716 13.5385 10.4951 15.2369 10.4951 18.7692C10.4951 20.5391 10.4951 21.7982 9.7493 22.72C8.89118 23.7822 7.32926 24 5.24753 24C3.16581 24 1.60389 23.7822 0.745767 22.72C0 21.7982 0 20.5403 0 18.8L0.926036 18.7692H0C0 15.2369 0.223484 13.5385 5.24753 13.5385ZM18.8294 13.5385C23.8534 13.5385 24.0769 15.2369 24.0769 18.7692C24.0769 20.5391 24.0769 21.7982 23.3312 22.72C22.473 23.7822 20.9111 24 18.8294 24C16.7477 24 15.1857 23.7822 14.3276 22.72C13.5819 21.7982 13.5819 20.5403 13.5819 18.8L14.5079 18.7692H13.5819C13.5819 15.2369 13.8053 13.5385 18.8294 13.5385ZM5.50208 15.3852L5.24753 15.3846C2.0262 15.3846 1.861 15.615 1.85253 18.3102L1.85305 19.3602C1.8589 20.4322 1.89987 21.2065 2.18668 21.5631C2.51388 21.9668 3.4856 22.1538 5.24753 22.1538C7.00947 22.1538 7.98119 21.9655 8.30839 21.5618C8.643 21.1471 8.643 20.1625 8.643 18.7988C8.643 15.7216 8.643 15.3997 5.50208 15.3852ZM19.0839 15.3852L18.8294 15.3846C15.6081 15.3846 15.4429 15.615 15.4344 18.3102L15.4349 19.3602C15.4408 20.4322 15.4817 21.2065 15.7685 21.5631C16.0957 21.9668 17.0675 22.1538 18.8294 22.1538C20.5913 22.1538 21.563 21.9655 21.8902 21.5618C22.2249 21.1471 22.2249 20.1625 22.2249 18.7988C22.2249 15.7216 22.2249 15.3997 19.0839 15.3852ZM5.24753 0C10.2716 0 10.4951 1.69846 10.4951 5.23077C10.4951 7.00062 10.4951 8.25969 9.7493 9.18154C8.89118 10.2437 7.32926 10.4615 5.24753 10.4615C3.16581 10.4615 1.60389 10.2437 0.745767 9.18154C0 8.25969 0 7.00185 0 5.26154L0.926036 5.23077H0C0 1.69846 0.223484 0 5.24753 0ZM18.8294 0C23.8534 0 24.0769 1.69846 24.0769 5.23077C24.0769 7.00062 24.0769 8.25969 23.3312 9.18154C22.473 10.2437 20.9111 10.4615 18.8294 10.4615C16.7477 10.4615 15.1857 10.2437 14.3276 9.18154C13.5819 8.25969 13.5819 7.00185 13.5819 5.26154L14.5079 5.23077H13.5819C13.5819 1.69846 13.8053 0 18.8294 0ZM5.50208 1.8467L5.24753 1.84615C2.0262 1.84615 1.861 2.07657 1.85253 4.77175L1.85305 5.82176C1.8589 6.89371 1.89987 7.66804 2.18668 8.02462C2.51388 8.42831 3.4856 8.61539 5.24753 8.61539C7.00947 8.61539 7.98119 8.42708 8.30839 8.02339C8.643 7.60862 8.643 6.624 8.643 5.26031C8.643 2.18313 8.643 1.86119 5.50208 1.8467ZM19.0839 1.8467L18.8294 1.84615C15.6081 1.84615 15.4429 2.07657 15.4344 4.77175L15.4349 5.82176C15.4408 6.89371 15.4817 7.66804 15.7685 8.02462C16.0957 8.42831 17.0675 8.61539 18.8294 8.61539C20.5913 8.61539 21.563 8.42708 21.8902 8.02339C22.2249 7.60862 22.2249 6.624 22.2249 5.26031C22.2249 2.18313 22.2249 1.86119 19.0839 1.8467Z" fill="black" fill-opacity="0.74"/>
</svg>
