<svg width="26" height="22" viewBox="0 0 26 22" fill="none" xmlns="http://www.w3.org/2000/svg">
<path fill-rule="evenodd" clip-rule="evenodd" d="M20.6201 13.4325C23.0794 13.4325 25.0801 15.3543 25.0801 17.7162C25.0801 20.0781 23.0794 22 20.6201 22C18.1594 22 16.1573 20.0781 16.1573 17.7162C16.1573 15.3543 18.1594 13.4325 20.6201 13.4325ZM20.6201 15.5079C19.3446 15.5079 18.307 16.4986 18.307 17.7162C18.307 18.9352 19.3446 19.9245 20.6201 19.9245C21.8942 19.9245 22.9304 18.9352 22.9304 17.7162C22.9304 16.4986 21.8942 15.5079 20.6201 15.5079ZM10.1472 16.7322C10.7405 16.7322 11.2221 17.1971 11.2221 17.7699C11.2221 18.3427 10.7405 18.8076 10.1472 18.8076H1.11686C0.523533 18.8076 0.0419915 18.3427 0.0419915 17.7699C0.0419915 17.1971 0.523533 16.7322 1.11686 16.7322H10.1472ZM4.46142 0C6.92215 0 8.92284 1.92327 8.92284 4.28516C8.92284 6.64704 6.92215 8.56755 4.46142 8.56755C2.00212 8.56755 0 6.64704 0 4.28516C0 1.92327 2.00212 0 4.46142 0ZM4.46142 2.07547C3.18734 2.07547 2.14974 3.06616 2.14974 4.28516C2.14974 5.50277 3.18734 6.49208 4.46142 6.49208C5.73693 6.49208 6.77311 5.50277 6.77311 4.28516C6.77311 3.06616 5.73693 2.07547 4.46142 2.07547ZM23.2044 3.32131C23.7977 3.32131 24.2793 3.78621 24.2793 4.35904C24.2793 4.93187 23.7977 5.39678 23.2044 5.39678H14.1755C13.5822 5.39678 13.1006 4.93187 13.1006 4.35904C13.1006 3.78621 13.5822 3.32131 14.1755 3.32131H23.2044Z" fill="#657C00"/>
</svg>
