<svg width="35" height="35" viewBox="0 0 35 35" fill="none" xmlns="http://www.w3.org/2000/svg">
<path fill-rule="evenodd" clip-rule="evenodd" d="M16.6984 7.31028C18.5569 6.01402 21.0257 5.65591 23.1585 6.40996C27.7979 8.06055 29.238 13.6403 27.9499 18.0801C25.9622 25.0532 17.4733 30.2546 17.1133 30.4727C16.9853 30.5509 16.8435 30.59 16.7018 30.59C16.5601 30.59 16.4195 30.5522 16.2915 30.4753C15.9337 30.2596 7.50651 25.1351 5.45257 18.0813C5.45143 18.0813 5.45143 18.0801 5.45143 18.0801C4.16215 13.639 5.59773 8.05802 10.2325 6.40996C12.4088 5.63321 14.7804 5.97493 16.6984 7.31028ZM10.7583 8.2106C7.00817 9.54469 6.06635 13.9946 7.08475 17.5038C8.68721 23.0041 15.0182 27.4515 16.7007 28.5523C18.3888 27.4401 24.7655 22.9436 26.3166 17.5089C27.335 13.9959 26.3897 9.54595 22.6339 8.2106C20.8142 7.56625 18.6917 7.95841 17.2264 9.20928C16.9201 9.46903 16.4949 9.47408 16.1863 9.21684C14.6341 7.92941 12.6065 7.55238 10.7583 8.2106ZM21.5366 10.7147C23.0945 11.2708 24.186 12.7928 24.3198 14.5922C24.3575 15.1129 24.0066 15.5694 23.5345 15.611C23.5105 15.6135 23.4877 15.6148 23.4637 15.6148C23.0213 15.6148 22.6464 15.2403 22.6099 14.746C22.5344 13.7095 21.9058 12.8344 21.0108 12.5154C20.5594 12.354 20.3125 11.8206 20.4576 11.325C20.6051 10.8282 21.084 10.5584 21.5366 10.7147Z" fill="#716C6C"/>
</svg>
