<svg width="35" height="35" viewBox="0 0 35 35" fill="none" xmlns="http://www.w3.org/2000/svg">
<path d="M14.7927 28.0861V24.326C14.7927 23.3661 15.5777 22.588 16.5461 22.588H20.0858C20.5508 22.588 20.9967 22.7711 21.3256 23.097C21.6544 23.4229 21.8391 23.865 21.8391 24.326V28.0861C21.8362 28.4852 21.994 28.8689 22.2777 29.1521C22.5613 29.4353 22.9472 29.5946 23.3498 29.5946H25.7648C26.8926 29.5975 27.9753 29.1554 28.7739 28.3658C29.5724 27.5763 30.0212 26.5042 30.0212 25.3862V14.6741C30.0212 13.771 29.6174 12.9143 28.9185 12.3349L20.7033 5.83114C19.2742 4.6908 17.2267 4.72762 15.8403 5.91858L7.81255 12.3349C7.08066 12.8973 6.64323 13.7565 6.62161 14.6741V25.3753C6.62161 27.7055 8.52731 29.5946 10.8781 29.5946H13.2379C14.0741 29.5946 14.7536 28.9259 14.7597 28.0971L14.7927 28.0861Z" fill="#AABB5D"/>
</svg>
