<svg width="24" height="25" viewBox="0 0 24 25" fill="none" xmlns="http://www.w3.org/2000/svg">
<path fill-rule="evenodd" clip-rule="evenodd" d="M12.4582 0C13.3269 0 14.1715 0.348895 14.7769 0.955309C15.3812 1.56528 15.7149 2.40192 15.6894 3.25042C15.6918 3.44148 15.7561 3.66221 15.8726 3.85565C16.0655 4.17606 16.3701 4.40154 16.7317 4.4941C17.0933 4.58192 17.4718 4.53445 17.7934 4.34814C19.3465 3.48065 21.3231 4.00043 22.2101 5.50756L22.966 6.78803C22.9855 6.82245 23.0024 6.85567 23.017 6.89009C23.8203 8.37467 23.2839 10.2438 21.7915 11.097C21.5743 11.2192 21.3983 11.3901 21.277 11.5966C21.0889 11.9158 21.0368 12.2956 21.1314 12.6445C21.2285 13.0005 21.4602 13.296 21.7866 13.4788C22.5232 13.8929 23.0728 14.5907 23.2924 15.3965C23.5121 16.2011 23.3919 17.0745 22.9636 17.7948L22.1579 19.1074C21.2709 20.5979 19.2943 21.1141 17.757 20.2454C17.5519 20.1303 17.3153 20.0674 17.0799 20.0615H17.0726C16.722 20.0615 16.3616 20.2074 16.0995 20.4626C15.8338 20.7225 15.6882 21.069 15.6906 21.4369C15.6821 23.1802 14.2321 24.59 12.4582 24.59H10.9378C9.15534 24.59 7.70535 23.1731 7.70535 21.4298C7.70293 21.215 7.63983 20.9919 7.52213 20.7984C7.33163 20.4733 7.02343 20.2407 6.66791 20.1481C6.31482 20.0555 5.92775 20.1066 5.60984 20.287C4.84784 20.7023 3.95115 20.8032 3.13091 20.5777C2.31188 20.351 1.60448 19.8004 1.1895 19.0706L0.431138 17.7925C-0.455843 16.2877 0.0719774 14.3593 1.60812 13.4906C2.04372 13.245 2.3143 12.7869 2.3143 12.2956C2.3143 11.8043 2.04372 11.345 1.60812 11.0994C0.0707641 10.226 -0.455843 8.29279 0.429925 6.78803L1.2526 5.46721C2.12744 3.97907 4.10525 3.45454 5.64746 4.32084C5.85737 4.44307 6.08549 4.50478 6.31725 4.50716C7.07318 4.50716 7.70535 3.89718 7.71749 3.14718C7.71263 2.32003 8.04631 1.52612 8.65421 0.926827C9.26455 0.328721 10.0751 0 10.9378 0H12.4582ZM12.4582 1.78008H10.9378C10.5617 1.78008 10.2098 1.92367 9.94404 2.18238C9.67952 2.44227 9.53513 2.7876 9.53756 3.15548C9.51208 4.89047 8.06209 6.28724 6.30632 6.28724C5.74332 6.2813 5.20094 6.13296 4.73014 5.85764C4.06885 5.48976 3.20493 5.71642 2.81786 6.37505L1.9964 7.69587C1.62025 8.33432 1.85079 9.17808 2.52058 9.55902C3.51434 10.1215 4.13437 11.1706 4.13437 12.2956C4.13437 13.4206 3.51434 14.4685 2.51815 15.0322C1.85201 15.4095 1.62146 16.2486 2.00732 16.9012L2.77296 18.1924C2.96225 18.5259 3.27166 18.7668 3.62961 18.8653C3.98634 18.9626 4.37948 18.921 4.70709 18.743C5.1888 18.4665 5.74938 18.3229 6.31239 18.3229C6.59026 18.3229 6.86812 18.3574 7.13992 18.4286C7.96016 18.6445 8.67242 19.1809 9.09467 19.9013C9.3689 20.3534 9.52057 20.8815 9.52542 21.4203C9.52542 22.1916 10.1588 22.8099 10.9378 22.8099H12.4582C13.2335 22.8099 13.8669 22.1952 13.8705 21.4369C13.8657 20.5991 14.2006 19.8028 14.8133 19.2035C15.4176 18.6125 16.2621 18.2577 17.1066 18.2814C17.6599 18.2945 18.1926 18.4404 18.6622 18.7015C19.338 19.0801 20.2007 18.8546 20.5914 18.2019L21.3971 16.8882C21.5767 16.5856 21.6289 16.2058 21.533 15.8557C21.4384 15.5057 21.2006 15.2019 20.8802 15.0227C20.1304 14.6002 19.5953 13.919 19.3732 13.1026C19.1536 12.3015 19.2737 11.4269 19.702 10.7066C19.9811 10.2319 20.39 9.83197 20.8802 9.55665C21.5379 9.18046 21.7684 8.33907 21.3862 7.684C21.3704 7.6579 21.3559 7.6306 21.3437 7.60212L20.6327 6.39641C20.2456 5.73779 19.3841 5.51112 18.7083 5.88731C17.9778 6.30978 17.109 6.43083 16.2742 6.21603C15.4407 6.0048 14.7417 5.48857 14.3061 4.75993C14.0271 4.30423 13.8754 3.77377 13.8705 3.23381C13.8815 2.82795 13.7359 2.46363 13.4713 2.19662C13.208 1.93079 12.838 1.78008 12.4582 1.78008ZM11.7033 8.27629C13.9687 8.27629 15.8118 10.0801 15.8118 12.2957C15.8118 14.5113 13.9687 16.3128 11.7033 16.3128C9.43794 16.3128 7.59481 14.5113 7.59481 12.2957C7.59481 10.0801 9.43794 8.27629 11.7033 8.27629ZM11.7033 10.0564C10.4414 10.0564 9.41488 11.0615 9.41488 12.2957C9.41488 13.5299 10.4414 14.5327 11.7033 14.5327C12.9652 14.5327 13.9918 13.5299 13.9918 12.2957C13.9918 11.0615 12.9652 10.0564 11.7033 10.0564Z" fill="#716C6C"/>
</svg>
